<svg width="243" height="51" viewBox="0 0 243 51" fill="none" xmlns="http://www.w3.org/2000/svg">
<rect width="243" height="51" rx="2" fill="#4285F4"/>
<rect x="1" y="1" width="48" height="49" rx="1" fill="white"/>
<g clip-path="url(#clip0_430_231)">
<path d="M20.9498 24.3234C21.6493 22.204 23.641 20.6818 26.0002 20.6818C27.2684 20.6818 28.4138 21.1318 29.3138 21.8682L31.932 19.25C30.3365 17.8591 28.2911 17 26.0002 17C22.4527 17 19.3985 19.0237 17.9302 21.9875L20.9498 24.3234Z" fill="#EA4335"/>
<path d="M29.0307 30.5094C28.2133 31.0372 27.1747 31.3182 26.0001 31.3182C23.65 31.3182 21.6645 29.8076 20.9579 27.7009L17.9282 30.0012C19.3947 32.9702 22.4489 35 26.0001 35C28.1998 35 30.3016 34.218 31.8758 32.7497L29.0307 30.5094Z" fill="#34A853"/>
<path d="M31.8756 32.7497C33.5219 31.2141 34.5909 28.9278 34.5909 26C34.5909 25.4682 34.5091 24.8955 34.3864 24.3636H26V27.8409H30.8273C30.5891 29.0102 29.9497 29.9159 29.0305 30.5095L31.8756 32.7497Z" fill="#4A90E2"/>
<path d="M20.9577 27.7009C20.7787 27.1672 20.6818 26.5953 20.6818 26C20.6818 25.4137 20.7758 24.8501 20.9497 24.3234L17.93 21.9875C17.3274 23.1953 17 24.5565 17 26C17 27.4397 17.3336 28.7976 17.9281 30.0012L20.9577 27.7009Z" fill="#FBBC05"/>
</g>
<path d="M77.3116 27.9453C77.3116 27.6631 77.2673 27.4141 77.1788 27.1982C77.0958 26.9769 76.9464 26.7777 76.7306 26.6006C76.5203 26.4235 76.227 26.2547 75.8507 26.0942C75.4799 25.9338 75.0095 25.7705 74.4395 25.6045C73.8419 25.4274 73.3023 25.231 72.8209 25.0151C72.3394 24.7938 71.9272 24.542 71.5841 24.2598C71.241 23.9775 70.9781 23.6538 70.7955 23.2886C70.6129 22.9233 70.5216 22.5055 70.5216 22.0352C70.5216 21.5648 70.6184 21.1304 70.8121 20.7319C71.0058 20.3335 71.2825 19.9876 71.6422 19.6943C72.0074 19.3955 72.4418 19.1631 72.9454 18.9971C73.449 18.8311 74.0107 18.748 74.6305 18.748C75.538 18.748 76.3072 18.9224 76.9381 19.271C77.5745 19.6141 78.0587 20.0651 78.3907 20.624C78.7227 21.1774 78.8888 21.7695 78.8888 22.4004H77.295C77.295 21.9466 77.1982 21.5454 77.0045 21.1968C76.8108 20.8426 76.5175 20.5659 76.1246 20.3667C75.7317 20.1619 75.2337 20.0596 74.6305 20.0596C74.0605 20.0596 73.5901 20.1453 73.2193 20.3169C72.8486 20.4884 72.5719 20.7209 72.3893 21.0142C72.2122 21.3075 72.1236 21.6423 72.1236 22.0186C72.1236 22.2731 72.1762 22.5055 72.2813 22.7158C72.392 22.9206 72.5608 23.1115 72.7877 23.2886C73.0201 23.4657 73.3134 23.6289 73.6676 23.7783C74.0273 23.9277 74.4561 24.0716 74.9542 24.21C75.6404 24.4036 76.2325 24.6195 76.7306 24.8574C77.2286 25.0954 77.6381 25.3638 77.9591 25.6626C78.2856 25.9559 78.5263 26.2907 78.6812 26.667C78.8417 27.0378 78.922 27.4583 78.922 27.9287C78.922 28.4212 78.8224 28.8667 78.6231 29.2651C78.4239 29.6636 78.1389 30.0039 77.7682 30.2861C77.3974 30.5684 76.9519 30.7869 76.4317 30.9419C75.9171 31.0913 75.3416 31.166 74.7052 31.166C74.1463 31.166 73.5956 31.0885 73.0533 30.9336C72.5165 30.7786 72.0268 30.5462 71.5841 30.2363C71.1469 29.9264 70.7955 29.5446 70.5299 29.0908C70.2698 28.6315 70.1397 28.1003 70.1397 27.4971H71.7335C71.7335 27.9121 71.8137 28.269 71.9742 28.5679C72.1347 28.8612 72.3533 29.1047 72.63 29.2983C72.9122 29.492 73.2304 29.6359 73.5846 29.73C73.9443 29.8185 74.3178 29.8628 74.7052 29.8628C75.2641 29.8628 75.7372 29.7853 76.1246 29.6304C76.512 29.4754 76.8053 29.2541 77.0045 28.9663C77.2092 28.6785 77.3116 28.3382 77.3116 27.9453ZM82.3 22.0186V31H80.7561V22.0186H82.3ZM80.6398 19.6362C80.6398 19.3872 80.7145 19.1769 80.864 19.0054C81.0189 18.8338 81.2458 18.748 81.5446 18.748C81.8379 18.748 82.062 18.8338 82.217 19.0054C82.3775 19.1769 82.4577 19.3872 82.4577 19.6362C82.4577 19.8742 82.3775 20.0789 82.217 20.2505C82.062 20.4165 81.8379 20.4995 81.5446 20.4995C81.2458 20.4995 81.0189 20.4165 80.864 20.2505C80.7145 20.0789 80.6398 19.8742 80.6398 19.6362ZM90.4842 22.0186H91.8787V30.8091C91.8787 31.6004 91.7182 32.2756 91.3973 32.8345C91.0763 33.3934 90.6281 33.8167 90.0525 34.1045C89.4825 34.3978 88.824 34.5444 88.0769 34.5444C87.7671 34.5444 87.4018 34.4946 86.9812 34.395C86.5662 34.3009 86.1567 34.1377 85.7527 33.9053C85.3543 33.6784 85.0195 33.3713 84.7483 32.9839L85.5535 32.0708C85.9298 32.5246 86.3227 32.84 86.7322 33.0171C87.1473 33.1942 87.5568 33.2827 87.9607 33.2827C88.4477 33.2827 88.8683 33.1914 89.2225 33.0088C89.5766 32.8262 89.8505 32.555 90.0442 32.1953C90.2435 31.8411 90.3431 31.404 90.3431 30.8838V23.9941L90.4842 22.0186ZM84.3001 26.6089V26.4346C84.3001 25.7484 84.3803 25.1258 84.5408 24.5669C84.7068 24.0024 84.942 23.5182 85.2464 23.1143C85.5563 22.7103 85.9298 22.4004 86.367 22.1846C86.8042 21.9632 87.2967 21.8525 87.8445 21.8525C88.409 21.8525 88.9015 21.9521 89.3221 22.1514C89.7482 22.3451 90.1079 22.63 90.4012 23.0063C90.7 23.3771 90.9352 23.8254 91.1067 24.3511C91.2783 24.8768 91.3973 25.4717 91.4637 26.1357V26.8994C91.4028 27.5579 91.2838 28.1501 91.1067 28.6758C90.9352 29.2015 90.7 29.6497 90.4012 30.0205C90.1079 30.3913 89.7482 30.6763 89.3221 30.8755C88.896 31.0692 88.3979 31.166 87.8279 31.166C87.2911 31.166 86.8042 31.0526 86.367 30.8257C85.9353 30.5988 85.5646 30.2806 85.2547 29.8711C84.9448 29.4616 84.7068 28.9801 84.5408 28.4268C84.3803 27.8678 84.3001 27.2619 84.3001 26.6089ZM85.8357 26.4346V26.6089C85.8357 27.0571 85.88 27.4777 85.9686 27.8706C86.0626 28.2635 86.2037 28.6094 86.3919 28.9082C86.5856 29.207 86.8318 29.4422 87.1307 29.6138C87.4295 29.7798 87.7864 29.8628 88.2015 29.8628C88.7106 29.8628 89.1311 29.7549 89.4632 29.5391C89.7952 29.3232 90.0581 29.0382 90.2518 28.6841C90.451 28.3299 90.6059 27.9453 90.7166 27.5303V25.5298C90.6557 25.2254 90.5616 24.9321 90.4344 24.6499C90.3126 24.3621 90.1521 24.1076 89.9529 23.8862C89.7592 23.6593 89.5185 23.4795 89.2308 23.3467C88.943 23.2139 88.6054 23.1475 88.2181 23.1475C87.7975 23.1475 87.435 23.236 87.1307 23.4131C86.8318 23.5846 86.5856 23.8226 86.3919 24.127C86.2037 24.4258 86.0626 24.7744 85.9686 25.1729C85.88 25.5658 85.8357 25.9863 85.8357 26.4346ZM95.6469 23.936V31H94.1112V22.0186H95.5639L95.6469 23.936ZM95.2816 26.1689L94.6425 26.144C94.648 25.5298 94.7393 24.9626 94.9164 24.4424C95.0935 23.9167 95.3425 23.4601 95.6635 23.0728C95.9844 22.6854 96.3663 22.3866 96.809 22.1763C97.2572 21.9604 97.7525 21.8525 98.2948 21.8525C98.7375 21.8525 99.136 21.9134 99.4901 22.0352C99.8443 22.1514 100.146 22.3395 100.395 22.5996C100.649 22.8597 100.843 23.1973 100.976 23.6123C101.109 24.0218 101.175 24.5226 101.175 25.1147V31H99.6312V25.0981C99.6312 24.6278 99.5621 24.2515 99.4237 23.9692C99.2854 23.6815 99.0834 23.474 98.8178 23.3467C98.5521 23.2139 98.2257 23.1475 97.8383 23.1475C97.4564 23.1475 97.1078 23.2277 96.7924 23.3882C96.4825 23.5487 96.2141 23.77 95.9872 24.0522C95.7659 24.3345 95.5915 24.6582 95.4643 25.0234C95.3425 25.3831 95.2816 25.765 95.2816 26.1689ZM109.193 22.0186V31H107.649V22.0186H109.193ZM107.533 19.6362C107.533 19.3872 107.608 19.1769 107.757 19.0054C107.912 18.8338 108.139 18.748 108.438 18.748C108.731 18.748 108.955 18.8338 109.11 19.0054C109.27 19.1769 109.351 19.3872 109.351 19.6362C109.351 19.8742 109.27 20.0789 109.11 20.2505C108.955 20.4165 108.731 20.4995 108.438 20.4995C108.139 20.4995 107.912 20.4165 107.757 20.2505C107.608 20.0789 107.533 19.8742 107.533 19.6362ZM113.094 23.936V31H111.558V22.0186H113.011L113.094 23.936ZM112.729 26.1689L112.09 26.144C112.095 25.5298 112.186 24.9626 112.363 24.4424C112.541 23.9167 112.79 23.4601 113.111 23.0728C113.432 22.6854 113.813 22.3866 114.256 22.1763C114.704 21.9604 115.2 21.8525 115.742 21.8525C116.185 21.8525 116.583 21.9134 116.937 22.0352C117.291 22.1514 117.593 22.3395 117.842 22.5996C118.097 22.8597 118.29 23.1973 118.423 23.6123C118.556 24.0218 118.622 24.5226 118.622 25.1147V31H117.078V25.0981C117.078 24.6278 117.009 24.2515 116.871 23.9692C116.732 23.6815 116.53 23.474 116.265 23.3467C115.999 23.2139 115.673 23.1475 115.285 23.1475C114.904 23.1475 114.555 23.2277 114.239 23.3882C113.93 23.5487 113.661 23.77 113.434 24.0522C113.213 24.3345 113.039 24.6582 112.911 25.0234C112.79 25.3831 112.729 25.765 112.729 26.1689ZM127.246 29.4062L129.554 22.0186H130.566L130.367 23.4878L128.018 31H127.03L127.246 29.4062ZM125.694 22.0186L127.661 29.4893L127.802 31H126.765L124.158 22.0186H125.694ZM132.774 29.4312L134.65 22.0186H136.178L133.571 31H132.542L132.774 29.4312ZM130.79 22.0186L133.048 29.2817L133.306 31H132.326L129.911 23.4712L129.711 22.0186H130.79ZM139.323 22.0186V31H137.779V22.0186H139.323ZM137.663 19.6362C137.663 19.3872 137.738 19.1769 137.887 19.0054C138.042 18.8338 138.269 18.748 138.568 18.748C138.861 18.748 139.085 18.8338 139.24 19.0054C139.401 19.1769 139.481 19.3872 139.481 19.6362C139.481 19.8742 139.401 20.0789 139.24 20.2505C139.085 20.4165 138.861 20.4995 138.568 20.4995C138.269 20.4995 138.042 20.4165 137.887 20.2505C137.738 20.0789 137.663 19.8742 137.663 19.6362ZM145.449 22.0186V23.1973H140.593V22.0186H145.449ZM142.236 19.8354H143.772V28.7754C143.772 29.0798 143.819 29.3094 143.913 29.4644C144.007 29.6193 144.129 29.7217 144.278 29.7715C144.428 29.8213 144.588 29.8462 144.76 29.8462C144.887 29.8462 145.02 29.8351 145.158 29.813C145.302 29.7853 145.41 29.7632 145.482 29.7466L145.49 31C145.369 31.0387 145.208 31.0747 145.009 31.1079C144.815 31.1466 144.58 31.166 144.303 31.166C143.927 31.166 143.581 31.0913 143.266 30.9419C142.95 30.7925 142.699 30.5435 142.51 30.1948C142.328 29.8407 142.236 29.3647 142.236 28.7671V19.8354ZM148.686 18.25V31H147.15V18.25H148.686ZM148.321 26.1689L147.681 26.144C147.687 25.5298 147.778 24.9626 147.955 24.4424C148.132 23.9167 148.381 23.4601 148.702 23.0728C149.023 22.6854 149.405 22.3866 149.848 22.1763C150.296 21.9604 150.791 21.8525 151.334 21.8525C151.776 21.8525 152.175 21.9134 152.529 22.0352C152.883 22.1514 153.185 22.3395 153.434 22.5996C153.688 22.8597 153.882 23.1973 154.015 23.6123C154.148 24.0218 154.214 24.5226 154.214 25.1147V31H152.67V25.0981C152.67 24.6278 152.601 24.2515 152.463 23.9692C152.324 23.6815 152.122 23.474 151.857 23.3467C151.591 23.2139 151.265 23.1475 150.877 23.1475C150.495 23.1475 150.147 23.2277 149.831 23.3882C149.521 23.5487 149.253 23.77 149.026 24.0522C148.805 24.3345 148.63 24.6582 148.503 25.0234C148.381 25.3831 148.321 25.765 148.321 26.1689ZM169.694 24.9819V29.4062C169.545 29.6276 169.307 29.8766 168.98 30.1533C168.654 30.4245 168.203 30.6624 167.627 30.8672C167.057 31.0664 166.321 31.166 165.419 31.166C164.683 31.166 164.005 31.0387 163.386 30.7842C162.771 30.5241 162.237 30.1478 161.784 29.6553C161.335 29.1572 160.987 28.554 160.738 27.8457C160.494 27.1318 160.372 26.3239 160.372 25.4219V24.4839C160.372 23.5819 160.478 22.7767 160.688 22.0684C160.904 21.36 161.219 20.7596 161.634 20.2671C162.049 19.769 162.558 19.3927 163.162 19.1382C163.765 18.8781 164.456 18.748 165.237 18.748C166.161 18.748 166.933 18.9085 167.553 19.2295C168.178 19.5449 168.665 19.9821 169.014 20.541C169.368 21.0999 169.595 21.7363 169.694 22.4502H168.092C168.02 22.013 167.876 21.6146 167.661 21.2549C167.45 20.8952 167.149 20.6074 166.756 20.3916C166.363 20.1702 165.857 20.0596 165.237 20.0596C164.678 20.0596 164.194 20.1619 163.784 20.3667C163.375 20.5715 163.037 20.8647 162.771 21.2466C162.506 21.6284 162.307 22.0905 162.174 22.6328C162.046 23.1751 161.983 23.7866 161.983 24.4673V25.4219C161.983 26.1191 162.063 26.7417 162.224 27.2896C162.39 27.8374 162.625 28.305 162.929 28.6924C163.233 29.0742 163.596 29.3647 164.017 29.564C164.443 29.7632 164.913 29.8628 165.428 29.8628C165.998 29.8628 166.46 29.8158 166.814 29.7217C167.168 29.6221 167.445 29.5059 167.644 29.373C167.843 29.2347 167.995 29.1047 168.1 28.9829V26.2769H165.303V24.9819H169.694ZM171.611 26.6089V26.418C171.611 25.7705 171.705 25.1701 171.894 24.6167C172.082 24.0578 172.353 23.5736 172.707 23.1641C173.061 22.749 173.49 22.4281 173.994 22.2012C174.497 21.9687 175.062 21.8525 175.687 21.8525C176.318 21.8525 176.885 21.9687 177.389 22.2012C177.898 22.4281 178.329 22.749 178.684 23.1641C179.043 23.5736 179.317 24.0578 179.505 24.6167C179.694 25.1701 179.788 25.7705 179.788 26.418V26.6089C179.788 27.2563 179.694 27.8568 179.505 28.4102C179.317 28.9635 179.043 29.4478 178.684 29.8628C178.329 30.2723 177.901 30.5933 177.397 30.8257C176.899 31.0526 176.334 31.166 175.704 31.166C175.073 31.166 174.506 31.0526 174.002 30.8257C173.498 30.5933 173.067 30.2723 172.707 29.8628C172.353 29.4478 172.082 28.9635 171.894 28.4102C171.705 27.8568 171.611 27.2563 171.611 26.6089ZM173.147 26.418V26.6089C173.147 27.0571 173.2 27.4805 173.305 27.8789C173.41 28.2718 173.568 28.6204 173.778 28.9248C173.994 29.2292 174.262 29.4699 174.583 29.647C174.904 29.8185 175.278 29.9043 175.704 29.9043C176.124 29.9043 176.492 29.8185 176.808 29.647C177.129 29.4699 177.394 29.2292 177.605 28.9248C177.815 28.6204 177.973 28.2718 178.078 27.8789C178.188 27.4805 178.244 27.0571 178.244 26.6089V26.418C178.244 25.9753 178.188 25.5575 178.078 25.1646C177.973 24.7661 177.812 24.4147 177.596 24.1104C177.386 23.8005 177.12 23.557 176.799 23.3799C176.484 23.2028 176.113 23.1143 175.687 23.1143C175.266 23.1143 174.896 23.2028 174.575 23.3799C174.259 23.557 173.994 23.8005 173.778 24.1104C173.568 24.4147 173.41 24.7661 173.305 25.1646C173.2 25.5575 173.147 25.9753 173.147 26.418ZM181.207 26.6089V26.418C181.207 25.7705 181.301 25.1701 181.489 24.6167C181.677 24.0578 181.948 23.5736 182.302 23.1641C182.657 22.749 183.085 22.4281 183.589 22.2012C184.093 21.9687 184.657 21.8525 185.282 21.8525C185.913 21.8525 186.48 21.9687 186.984 22.2012C187.493 22.4281 187.925 22.749 188.279 23.1641C188.639 23.5736 188.913 24.0578 189.101 24.6167C189.289 25.1701 189.383 25.7705 189.383 26.418V26.6089C189.383 27.2563 189.289 27.8568 189.101 28.4102C188.913 28.9635 188.639 29.4478 188.279 29.8628C187.925 30.2723 187.496 30.5933 186.992 30.8257C186.494 31.0526 185.93 31.166 185.299 31.166C184.668 31.166 184.101 31.0526 183.597 30.8257C183.094 30.5933 182.662 30.2723 182.302 29.8628C181.948 29.4478 181.677 28.9635 181.489 28.4102C181.301 27.8568 181.207 27.2563 181.207 26.6089ZM182.742 26.418V26.6089C182.742 27.0571 182.795 27.4805 182.9 27.8789C183.005 28.2718 183.163 28.6204 183.373 28.9248C183.589 29.2292 183.857 29.4699 184.178 29.647C184.499 29.8185 184.873 29.9043 185.299 29.9043C185.72 29.9043 186.088 29.8185 186.403 29.647C186.724 29.4699 186.99 29.2292 187.2 28.9248C187.41 28.6204 187.568 28.2718 187.673 27.8789C187.784 27.4805 187.839 27.0571 187.839 26.6089V26.418C187.839 25.9753 187.784 25.5575 187.673 25.1646C187.568 24.7661 187.407 24.4147 187.192 24.1104C186.981 23.8005 186.716 23.557 186.395 23.3799C186.079 23.2028 185.708 23.1143 185.282 23.1143C184.862 23.1143 184.491 23.2028 184.17 23.3799C183.855 23.557 183.589 23.8005 183.373 24.1104C183.163 24.4147 183.005 24.7661 182.9 25.1646C182.795 25.5575 182.742 25.9753 182.742 26.418ZM197.028 22.0186H198.422V30.8091C198.422 31.6004 198.262 32.2756 197.941 32.8345C197.62 33.3934 197.171 33.8167 196.596 34.1045C196.026 34.3978 195.367 34.5444 194.62 34.5444C194.31 34.5444 193.945 34.4946 193.525 34.395C193.11 34.3009 192.7 34.1377 192.296 33.9053C191.898 33.6784 191.563 33.3713 191.292 32.9839L192.097 32.0708C192.473 32.5246 192.866 32.84 193.276 33.0171C193.691 33.1942 194.1 33.2827 194.504 33.2827C194.991 33.2827 195.412 33.1914 195.766 33.0088C196.12 32.8262 196.394 32.555 196.588 32.1953C196.787 31.8411 196.886 31.404 196.886 30.8838V23.9941L197.028 22.0186ZM190.843 26.6089V26.4346C190.843 25.7484 190.924 25.1258 191.084 24.5669C191.25 24.0024 191.485 23.5182 191.79 23.1143C192.1 22.7103 192.473 22.4004 192.91 22.1846C193.348 21.9632 193.84 21.8525 194.388 21.8525C194.952 21.8525 195.445 21.9521 195.865 22.1514C196.292 22.3451 196.651 22.63 196.945 23.0063C197.243 23.3771 197.479 23.8254 197.65 24.3511C197.822 24.8768 197.941 25.4717 198.007 26.1357V26.8994C197.946 27.5579 197.827 28.1501 197.65 28.6758C197.479 29.2015 197.243 29.6497 196.945 30.0205C196.651 30.3913 196.292 30.6763 195.865 30.8755C195.439 31.0692 194.941 31.166 194.371 31.166C193.835 31.166 193.348 31.0526 192.91 30.8257C192.479 30.5988 192.108 30.2806 191.798 29.8711C191.488 29.4616 191.25 28.9801 191.084 28.4268C190.924 27.8678 190.843 27.2619 190.843 26.6089ZM192.379 26.4346V26.6089C192.379 27.0571 192.423 27.4777 192.512 27.8706C192.606 28.2635 192.747 28.6094 192.935 28.9082C193.129 29.207 193.375 29.4422 193.674 29.6138C193.973 29.7798 194.33 29.8628 194.745 29.8628C195.254 29.8628 195.675 29.7549 196.007 29.5391C196.339 29.3232 196.601 29.0382 196.795 28.6841C196.994 28.3299 197.149 27.9453 197.26 27.5303V25.5298C197.199 25.2254 197.105 24.9321 196.978 24.6499C196.856 24.3621 196.696 24.1076 196.496 23.8862C196.303 23.6593 196.062 23.4795 195.774 23.3467C195.486 23.2139 195.149 23.1475 194.761 23.1475C194.341 23.1475 193.978 23.236 193.674 23.4131C193.375 23.5846 193.129 23.8226 192.935 24.127C192.747 24.4258 192.606 24.7744 192.512 25.1729C192.423 25.5658 192.379 25.9863 192.379 26.4346ZM202.323 18.25V31H200.779V18.25H202.323ZM208.415 31.166C207.79 31.166 207.223 31.0609 206.714 30.8506C206.21 30.6348 205.776 30.3332 205.411 29.9458C205.051 29.5584 204.774 29.0991 204.58 28.5679C204.387 28.0366 204.29 27.4556 204.29 26.8247V26.4761C204.29 25.7456 204.398 25.0954 204.614 24.5254C204.829 23.9499 205.123 23.4629 205.494 23.0645C205.864 22.666 206.285 22.3644 206.755 22.1597C207.226 21.9549 207.713 21.8525 208.216 21.8525C208.858 21.8525 209.412 21.9632 209.876 22.1846C210.347 22.4059 210.731 22.7158 211.03 23.1143C211.329 23.5072 211.55 23.972 211.694 24.5088C211.838 25.04 211.91 25.6211 211.91 26.252V26.9409H205.203V25.6875H210.374V25.5713C210.352 25.1729 210.269 24.7855 210.125 24.4092C209.987 24.0329 209.766 23.723 209.461 23.4795C209.157 23.236 208.742 23.1143 208.216 23.1143C207.868 23.1143 207.547 23.189 207.253 23.3384C206.96 23.4823 206.708 23.6981 206.498 23.9858C206.288 24.2736 206.124 24.625 206.008 25.04C205.892 25.4551 205.834 25.9338 205.834 26.4761V26.8247C205.834 27.2508 205.892 27.652 206.008 28.0283C206.13 28.3991 206.304 28.7256 206.531 29.0078C206.764 29.29 207.043 29.5114 207.37 29.6719C207.702 29.8324 208.078 29.9126 208.498 29.9126C209.041 29.9126 209.5 29.8019 209.876 29.5806C210.253 29.3592 210.582 29.0632 210.864 28.6924L211.794 29.4312C211.6 29.7244 211.354 30.0039 211.055 30.2695C210.756 30.5352 210.388 30.751 209.951 30.917C209.519 31.083 209.008 31.166 208.415 31.166Z" fill="white"/>
<defs>
<clipPath id="clip0_430_231">
<rect width="18" height="18" fill="white" transform="translate(17 17)"/>
</clipPath>
</defs>
</svg>
