<svg width="243" height="51" viewBox="0 0 243 51" fill="none" xmlns="http://www.w3.org/2000/svg">
<rect width="243" height="51" rx="2" fill="#4267B2"/>
<rect x="1.5" y="1.5" width="47" height="48" rx="0.5" fill="#4267B2" stroke="#FFFFFE"/>
<g clip-path="url(#clip0_614_213)">
<rect x="17" y="17" width="18" height="18" rx="1" fill="#4267B2"/>
<path d="M34.0054 17.0005H17.9934C17.4452 17.0005 17 17.4448 17 17.994V34.0061C17 34.5553 17.4452 35.0002 17.9934 35.0002H26.6138V28.0296H24.2683V25.3127H26.6138V23.3092C26.6138 20.9847 28.0331 19.7183 30.1072 19.7183C31.1015 19.7183 31.9542 19.7927 32.2028 19.825V22.2547L30.7642 22.2553C29.6365 22.2553 29.419 22.7914 29.419 23.5777V25.3119H32.1095L31.7577 28.0285H29.4187V34.9993H34.0051C34.554 34.9993 34.9994 34.5538 34.9994 34.0061V17.9934C34.9991 17.4448 34.5543 17.0005 34.0054 17.0005Z" fill="#FFFFFE"/>
</g>
<path d="M72.3345 27.9453C72.3345 27.6631 72.2902 27.4141 72.2017 27.1982C72.1186 26.9769 71.9692 26.7777 71.7534 26.6006C71.5431 26.4235 71.2498 26.2547 70.8735 26.0942C70.5028 25.9338 70.0324 25.7705 69.4624 25.6045C68.8647 25.4274 68.3252 25.231 67.8437 25.0151C67.3623 24.7938 66.95 24.542 66.6069 24.2598C66.2638 23.9775 66.001 23.6538 65.8184 23.2886C65.6357 22.9233 65.5444 22.5055 65.5444 22.0352C65.5444 21.5648 65.6413 21.1304 65.835 20.7319C66.0286 20.3335 66.3053 19.9876 66.665 19.6943C67.0303 19.3955 67.4647 19.1631 67.9683 18.9971C68.4718 18.8311 69.0335 18.748 69.6533 18.748C70.5609 18.748 71.3301 18.9224 71.9609 19.271C72.5973 19.6141 73.0815 20.0651 73.4136 20.624C73.7456 21.1774 73.9116 21.7695 73.9116 22.4004H72.3179C72.3179 21.9466 72.221 21.5454 72.0273 21.1968C71.8337 20.8426 71.5404 20.5659 71.1475 20.3667C70.7546 20.1619 70.2565 20.0596 69.6533 20.0596C69.0833 20.0596 68.6129 20.1453 68.2422 20.3169C67.8714 20.4884 67.5947 20.7209 67.4121 21.0142C67.235 21.3075 67.1465 21.6423 67.1465 22.0186C67.1465 22.2731 67.199 22.5055 67.3042 22.7158C67.4149 22.9206 67.5837 23.1115 67.8105 23.2886C68.043 23.4657 68.3363 23.6289 68.6904 23.7783C69.0501 23.9277 69.479 24.0716 69.977 24.21C70.6632 24.4036 71.2554 24.6195 71.7534 24.8574C72.2515 25.0954 72.661 25.3638 72.9819 25.6626C73.3084 25.9559 73.5491 26.2907 73.7041 26.667C73.8646 27.0378 73.9448 27.4583 73.9448 27.9287C73.9448 28.4212 73.8452 28.8667 73.646 29.2651C73.4468 29.6636 73.1618 30.0039 72.791 30.2861C72.4202 30.5684 71.9748 30.7869 71.4546 30.9419C70.9399 31.0913 70.3644 31.166 69.728 31.166C69.1691 31.166 68.6185 31.0885 68.0762 30.9336C67.5394 30.7786 67.0496 30.5462 66.6069 30.2363C66.1698 29.9264 65.8184 29.5446 65.5527 29.0908C65.2926 28.6315 65.1626 28.1003 65.1626 27.4971H66.7563C66.7563 27.9121 66.8366 28.269 66.9971 28.5679C67.1575 28.8612 67.3761 29.1047 67.6528 29.2983C67.9351 29.492 68.2532 29.6359 68.6074 29.73C68.9671 29.8185 69.3407 29.8628 69.728 29.8628C70.2869 29.8628 70.7601 29.7853 71.1475 29.6304C71.5348 29.4754 71.8281 29.2541 72.0273 28.9663C72.2321 28.6785 72.3345 28.3382 72.3345 27.9453ZM77.3228 22.0186V31H75.7789V22.0186H77.3228ZM75.6627 19.6362C75.6627 19.3872 75.7374 19.1769 75.8868 19.0054C76.0418 18.8338 76.2686 18.748 76.5675 18.748C76.8608 18.748 77.0849 18.8338 77.2398 19.0054C77.4003 19.1769 77.4806 19.3872 77.4806 19.6362C77.4806 19.8742 77.4003 20.0789 77.2398 20.2505C77.0849 20.4165 76.8608 20.4995 76.5675 20.4995C76.2686 20.4995 76.0418 20.4165 75.8868 20.2505C75.7374 20.0789 75.6627 19.8742 75.6627 19.6362ZM85.507 22.0186H86.9016V30.8091C86.9016 31.6004 86.7411 32.2756 86.4201 32.8345C86.0991 33.3934 85.6509 33.8167 85.0754 34.1045C84.5054 34.3978 83.8469 34.5444 83.0998 34.5444C82.7899 34.5444 82.4247 34.4946 82.0041 34.395C81.5891 34.3009 81.1796 34.1377 80.7756 33.9053C80.3771 33.6784 80.0423 33.3713 79.7712 32.9839L80.5764 32.0708C80.9527 32.5246 81.3456 32.84 81.7551 33.0171C82.1701 33.1942 82.5796 33.2827 82.9836 33.2827C83.4706 33.2827 83.8911 33.1914 84.2453 33.0088C84.5995 32.8262 84.8734 32.555 85.0671 32.1953C85.2663 31.8411 85.3659 31.404 85.3659 30.8838V23.9941L85.507 22.0186ZM79.3229 26.6089V26.4346C79.3229 25.7484 79.4032 25.1258 79.5637 24.5669C79.7297 24.0024 79.9649 23.5182 80.2692 23.1143C80.5791 22.7103 80.9527 22.4004 81.3898 22.1846C81.827 21.9632 82.3195 21.8525 82.8674 21.8525C83.4318 21.8525 83.9243 21.9521 84.3449 22.1514C84.771 22.3451 85.1307 22.63 85.424 23.0063C85.7228 23.3771 85.958 23.8254 86.1296 24.3511C86.3011 24.8768 86.4201 25.4717 86.4865 26.1357V26.8994C86.4256 27.5579 86.3067 28.1501 86.1296 28.6758C85.958 29.2015 85.7228 29.6497 85.424 30.0205C85.1307 30.3913 84.771 30.6763 84.3449 30.8755C83.9188 31.0692 83.4208 31.166 82.8508 31.166C82.314 31.166 81.827 31.0526 81.3898 30.8257C80.9582 30.5988 80.5874 30.2806 80.2775 29.8711C79.9676 29.4616 79.7297 28.9801 79.5637 28.4268C79.4032 27.8678 79.3229 27.2619 79.3229 26.6089ZM80.8586 26.4346V26.6089C80.8586 27.0571 80.9029 27.4777 80.9914 27.8706C81.0855 28.2635 81.2266 28.6094 81.4147 28.9082C81.6084 29.207 81.8547 29.4422 82.1535 29.6138C82.4523 29.7798 82.8093 29.8628 83.2243 29.8628C83.7334 29.8628 84.154 29.7549 84.486 29.5391C84.8181 29.3232 85.0809 29.0382 85.2746 28.6841C85.4738 28.3299 85.6288 27.9453 85.7394 27.5303V25.5298C85.6786 25.2254 85.5845 24.9321 85.4572 24.6499C85.3355 24.3621 85.175 24.1076 84.9758 23.8862C84.7821 23.6593 84.5414 23.4795 84.2536 23.3467C83.9658 23.2139 83.6283 23.1475 83.2409 23.1475C82.8203 23.1475 82.4579 23.236 82.1535 23.4131C81.8547 23.5846 81.6084 23.8226 81.4147 24.127C81.2266 24.4258 81.0855 24.7744 80.9914 25.1729C80.9029 25.5658 80.8586 25.9863 80.8586 26.4346ZM90.6697 23.936V31H89.1341V22.0186H90.5867L90.6697 23.936ZM90.3045 26.1689L89.6653 26.144C89.6709 25.5298 89.7622 24.9626 89.9393 24.4424C90.1163 23.9167 90.3654 23.4601 90.6863 23.0728C91.0073 22.6854 91.3891 22.3866 91.8318 22.1763C92.2801 21.9604 92.7754 21.8525 93.3177 21.8525C93.7604 21.8525 94.1588 21.9134 94.513 22.0352C94.8672 22.1514 95.1687 22.3395 95.4178 22.5996C95.6723 22.8597 95.866 23.1973 95.9988 23.6123C96.1316 24.0218 96.198 24.5226 96.198 25.1147V31H94.6541V25.0981C94.6541 24.6278 94.5849 24.2515 94.4466 23.9692C94.3082 23.6815 94.1062 23.474 93.8406 23.3467C93.575 23.2139 93.2485 23.1475 92.8611 23.1475C92.4793 23.1475 92.1307 23.2277 91.8152 23.3882C91.5053 23.5487 91.2369 23.77 91.0101 24.0522C90.7887 24.3345 90.6144 24.6582 90.4871 25.0234C90.3654 25.3831 90.3045 25.765 90.3045 26.1689ZM104.216 22.0186V31H102.672V22.0186H104.216ZM102.556 19.6362C102.556 19.3872 102.63 19.1769 102.78 19.0054C102.935 18.8338 103.162 18.748 103.46 18.748C103.754 18.748 103.978 18.8338 104.133 19.0054C104.293 19.1769 104.374 19.3872 104.374 19.6362C104.374 19.8742 104.293 20.0789 104.133 20.2505C103.978 20.4165 103.754 20.4995 103.46 20.4995C103.162 20.4995 102.935 20.4165 102.78 20.2505C102.63 20.0789 102.556 19.8742 102.556 19.6362ZM108.117 23.936V31H106.581V22.0186H108.034L108.117 23.936ZM107.752 26.1689L107.112 26.144C107.118 25.5298 107.209 24.9626 107.386 24.4424C107.563 23.9167 107.812 23.4601 108.133 23.0728C108.454 22.6854 108.836 22.3866 109.279 22.1763C109.727 21.9604 110.222 21.8525 110.765 21.8525C111.207 21.8525 111.606 21.9134 111.96 22.0352C112.314 22.1514 112.616 22.3395 112.865 22.5996C113.119 22.8597 113.313 23.1973 113.446 23.6123C113.579 24.0218 113.645 24.5226 113.645 25.1147V31H112.101V25.0981C112.101 24.6278 112.032 24.2515 111.894 23.9692C111.755 23.6815 111.553 23.474 111.288 23.3467C111.022 23.2139 110.696 23.1475 110.308 23.1475C109.926 23.1475 109.578 23.2277 109.262 23.3882C108.952 23.5487 108.684 23.77 108.457 24.0522C108.236 24.3345 108.061 24.6582 107.934 25.0234C107.812 25.3831 107.752 25.765 107.752 26.1689ZM122.269 29.4062L124.576 22.0186H125.589L125.39 23.4878L123.041 31H122.053L122.269 29.4062ZM120.717 22.0186L122.684 29.4893L122.825 31H121.787L119.181 22.0186H120.717ZM127.797 29.4312L129.673 22.0186H131.2L128.594 31H127.565L127.797 29.4312ZM125.813 22.0186L128.071 29.2817L128.328 31H127.349L124.933 23.4712L124.734 22.0186H125.813ZM134.346 22.0186V31H132.802V22.0186H134.346ZM132.686 19.6362C132.686 19.3872 132.761 19.1769 132.91 19.0054C133.065 18.8338 133.292 18.748 133.591 18.748C133.884 18.748 134.108 18.8338 134.263 19.0054C134.424 19.1769 134.504 19.3872 134.504 19.6362C134.504 19.8742 134.424 20.0789 134.263 20.2505C134.108 20.4165 133.884 20.4995 133.591 20.4995C133.292 20.4995 133.065 20.4165 132.91 20.2505C132.761 20.0789 132.686 19.8742 132.686 19.6362ZM140.472 22.0186V23.1973H135.616V22.0186H140.472ZM137.259 19.8354H138.795V28.7754C138.795 29.0798 138.842 29.3094 138.936 29.4644C139.03 29.6193 139.152 29.7217 139.301 29.7715C139.451 29.8213 139.611 29.8462 139.783 29.8462C139.91 29.8462 140.043 29.8351 140.181 29.813C140.325 29.7853 140.433 29.7632 140.505 29.7466L140.513 31C140.391 31.0387 140.231 31.0747 140.032 31.1079C139.838 31.1466 139.603 31.166 139.326 31.166C138.95 31.166 138.604 31.0913 138.289 30.9419C137.973 30.7925 137.721 30.5435 137.533 30.1948C137.351 29.8407 137.259 29.3647 137.259 28.7671V19.8354ZM143.709 18.25V31H142.173V18.25H143.709ZM143.343 26.1689L142.704 26.144C142.71 25.5298 142.801 24.9626 142.978 24.4424C143.155 23.9167 143.404 23.4601 143.725 23.0728C144.046 22.6854 144.428 22.3866 144.871 22.1763C145.319 21.9604 145.814 21.8525 146.357 21.8525C146.799 21.8525 147.198 21.9134 147.552 22.0352C147.906 22.1514 148.208 22.3395 148.457 22.5996C148.711 22.8597 148.905 23.1973 149.038 23.6123C149.171 24.0218 149.237 24.5226 149.237 25.1147V31H147.693V25.0981C147.693 24.6278 147.624 24.2515 147.485 23.9692C147.347 23.6815 147.145 23.474 146.879 23.3467C146.614 23.2139 146.287 23.1475 145.9 23.1475C145.518 23.1475 145.17 23.2277 144.854 23.3882C144.544 23.5487 144.276 23.77 144.049 24.0522C143.828 24.3345 143.653 24.6582 143.526 25.0234C143.404 25.3831 143.343 25.765 143.343 26.1689ZM157.388 18.9141V31H155.785V18.9141H157.388ZM162.451 24.3511V25.6626H157.039V24.3511H162.451ZM163.273 18.9141V20.2256H157.039V18.9141H163.273ZM169.863 29.4644V24.8408C169.863 24.4867 169.791 24.1795 169.647 23.9194C169.509 23.6538 169.299 23.4491 169.017 23.3052C168.734 23.1613 168.386 23.0894 167.971 23.0894C167.583 23.0894 167.243 23.1558 166.95 23.2886C166.662 23.4214 166.435 23.5957 166.269 23.8115C166.108 24.0273 166.028 24.2598 166.028 24.5088H164.493C164.493 24.1878 164.576 23.8696 164.742 23.5542C164.908 23.2388 165.146 22.9538 165.455 22.6992C165.771 22.4391 166.147 22.2344 166.584 22.085C167.027 21.93 167.52 21.8525 168.062 21.8525C168.715 21.8525 169.29 21.9632 169.788 22.1846C170.292 22.4059 170.685 22.7407 170.967 23.189C171.255 23.6317 171.399 24.1878 171.399 24.8574V29.041C171.399 29.3398 171.424 29.658 171.474 29.9956C171.529 30.3332 171.609 30.6237 171.714 30.8672V31H170.112C170.035 30.8229 169.974 30.5877 169.93 30.2944C169.885 29.9956 169.863 29.7189 169.863 29.4644ZM170.129 25.5547L170.145 26.6338H168.593C168.156 26.6338 167.766 26.6698 167.423 26.7417C167.08 26.8081 166.792 26.9105 166.559 27.0488C166.327 27.1872 166.15 27.3615 166.028 27.5718C165.906 27.7765 165.846 28.0173 165.846 28.2939C165.846 28.5762 165.909 28.8335 166.037 29.0659C166.164 29.2983 166.355 29.4837 166.609 29.6221C166.869 29.7549 167.188 29.8213 167.564 29.8213C168.034 29.8213 168.449 29.7217 168.809 29.5225C169.169 29.3232 169.454 29.0798 169.664 28.792C169.88 28.5042 169.996 28.2248 170.013 27.9536L170.668 28.6924C170.63 28.9248 170.524 29.1821 170.353 29.4644C170.181 29.7466 169.952 30.0177 169.664 30.2778C169.382 30.5324 169.044 30.7454 168.651 30.917C168.264 31.083 167.827 31.166 167.34 31.166C166.731 31.166 166.197 31.047 165.738 30.8091C165.284 30.5711 164.93 30.2529 164.675 29.8545C164.426 29.4505 164.302 28.9995 164.302 28.5015C164.302 28.02 164.396 27.5967 164.584 27.2314C164.772 26.8607 165.043 26.5535 165.397 26.3101C165.752 26.061 166.178 25.8729 166.676 25.7456C167.174 25.6183 167.73 25.5547 168.344 25.5547H170.129ZM177.309 29.9043C177.674 29.9043 178.011 29.8296 178.321 29.6802C178.631 29.5308 178.886 29.326 179.085 29.0659C179.284 28.8003 179.398 28.4987 179.425 28.1611H180.886C180.859 28.6924 180.679 29.1877 180.347 29.647C180.02 30.1007 179.591 30.4687 179.06 30.751C178.529 31.0277 177.945 31.166 177.309 31.166C176.633 31.166 176.044 31.047 175.541 30.8091C175.042 30.5711 174.627 30.2446 174.295 29.8296C173.969 29.4146 173.723 28.9386 173.557 28.4019C173.396 27.8595 173.316 27.2868 173.316 26.6836V26.335C173.316 25.7318 173.396 25.1618 173.557 24.625C173.723 24.0827 173.969 23.604 174.295 23.189C174.627 22.7739 175.042 22.4474 175.541 22.2095C176.044 21.9715 176.633 21.8525 177.309 21.8525C178.011 21.8525 178.626 21.9964 179.151 22.2842C179.677 22.5664 180.089 22.9538 180.388 23.4463C180.693 23.9333 180.859 24.4867 180.886 25.1064H179.425C179.398 24.7357 179.292 24.4009 179.11 24.1021C178.933 23.8032 178.689 23.5653 178.379 23.3882C178.075 23.2056 177.718 23.1143 177.309 23.1143C176.838 23.1143 176.443 23.2083 176.122 23.3965C175.806 23.5791 175.554 23.8281 175.366 24.1436C175.184 24.4534 175.051 24.7993 174.968 25.1812C174.89 25.5575 174.852 25.9421 174.852 26.335V26.6836C174.852 27.0765 174.89 27.4639 174.968 27.8457C175.045 28.2275 175.175 28.5734 175.358 28.8833C175.546 29.1932 175.798 29.4422 176.113 29.6304C176.434 29.813 176.833 29.9043 177.309 29.9043ZM186.24 31.166C185.615 31.166 185.047 31.0609 184.538 30.8506C184.035 30.6348 183.6 30.3332 183.235 29.9458C182.875 29.5584 182.599 29.0991 182.405 28.5679C182.211 28.0366 182.114 27.4556 182.114 26.8247V26.4761C182.114 25.7456 182.222 25.0954 182.438 24.5254C182.654 23.9499 182.947 23.4629 183.318 23.0645C183.689 22.666 184.109 22.3644 184.58 22.1597C185.05 21.9549 185.537 21.8525 186.041 21.8525C186.683 21.8525 187.236 21.9632 187.701 22.1846C188.171 22.4059 188.556 22.7158 188.855 23.1143C189.153 23.5072 189.375 23.972 189.519 24.5088C189.663 25.04 189.734 25.6211 189.734 26.252V26.9409H183.027V25.6875H188.199V25.5713C188.177 25.1729 188.094 24.7855 187.95 24.4092C187.811 24.0329 187.59 23.723 187.286 23.4795C186.981 23.236 186.566 23.1143 186.041 23.1143C185.692 23.1143 185.371 23.189 185.078 23.3384C184.784 23.4823 184.533 23.6981 184.322 23.9858C184.112 24.2736 183.949 24.625 183.833 25.04C183.716 25.4551 183.658 25.9338 183.658 26.4761V26.8247C183.658 27.2508 183.716 27.652 183.833 28.0283C183.954 28.3991 184.129 28.7256 184.356 29.0078C184.588 29.29 184.867 29.5114 185.194 29.6719C185.526 29.8324 185.902 29.9126 186.323 29.9126C186.865 29.9126 187.324 29.8019 187.701 29.5806C188.077 29.3592 188.406 29.0632 188.689 28.6924L189.618 29.4312C189.425 29.7244 189.178 30.0039 188.879 30.2695C188.581 30.5352 188.213 30.751 187.775 30.917C187.344 31.083 186.832 31.166 186.24 31.166ZM191.419 18.25H192.963V29.2568L192.83 31H191.419V18.25ZM199.031 26.4346V26.6089C199.031 27.2619 198.953 27.8678 198.799 28.4268C198.644 28.9801 198.417 29.4616 198.118 29.8711C197.819 30.2806 197.454 30.5988 197.022 30.8257C196.591 31.0526 196.095 31.166 195.536 31.166C194.966 31.166 194.466 31.0692 194.034 30.8755C193.608 30.6763 193.248 30.3913 192.955 30.0205C192.661 29.6497 192.426 29.2015 192.249 28.6758C192.078 28.1501 191.959 27.5579 191.892 26.8994V26.1357C191.959 25.4717 192.078 24.8768 192.249 24.3511C192.426 23.8254 192.661 23.3771 192.955 23.0063C193.248 22.63 193.608 22.3451 194.034 22.1514C194.46 21.9521 194.955 21.8525 195.52 21.8525C196.084 21.8525 196.585 21.9632 197.022 22.1846C197.459 22.4004 197.825 22.7103 198.118 23.1143C198.417 23.5182 198.644 24.0024 198.799 24.5669C198.953 25.1258 199.031 25.7484 199.031 26.4346ZM197.487 26.6089V26.4346C197.487 25.9863 197.446 25.5658 197.363 25.1729C197.279 24.7744 197.147 24.4258 196.964 24.127C196.781 23.8226 196.541 23.5846 196.242 23.4131C195.943 23.236 195.575 23.1475 195.138 23.1475C194.751 23.1475 194.413 23.2139 194.125 23.3467C193.843 23.4795 193.602 23.6593 193.403 23.8862C193.204 24.1076 193.041 24.3621 192.913 24.6499C192.792 24.9321 192.7 25.2254 192.639 25.5298V27.5303C192.728 27.9176 192.872 28.2912 193.071 28.6509C193.276 29.005 193.547 29.2956 193.884 29.5225C194.228 29.7493 194.651 29.8628 195.154 29.8628C195.57 29.8628 195.924 29.7798 196.217 29.6138C196.516 29.4422 196.757 29.207 196.939 28.9082C197.127 28.6094 197.266 28.2635 197.354 27.8706C197.443 27.4777 197.487 27.0571 197.487 26.6089ZM200.467 26.6089V26.418C200.467 25.7705 200.561 25.1701 200.749 24.6167C200.937 24.0578 201.208 23.5736 201.562 23.1641C201.916 22.749 202.345 22.4281 202.849 22.2012C203.353 21.9687 203.917 21.8525 204.542 21.8525C205.173 21.8525 205.74 21.9687 206.244 22.2012C206.753 22.4281 207.185 22.749 207.539 23.1641C207.899 23.5736 208.173 24.0578 208.361 24.6167C208.549 25.1701 208.643 25.7705 208.643 26.418V26.6089C208.643 27.2563 208.549 27.8568 208.361 28.4102C208.173 28.9635 207.899 29.4478 207.539 29.8628C207.185 30.2723 206.756 30.5933 206.252 30.8257C205.754 31.0526 205.19 31.166 204.559 31.166C203.928 31.166 203.361 31.0526 202.857 30.8257C202.354 30.5933 201.922 30.2723 201.562 29.8628C201.208 29.4478 200.937 28.9635 200.749 28.4102C200.561 27.8568 200.467 27.2563 200.467 26.6089ZM202.002 26.418V26.6089C202.002 27.0571 202.055 27.4805 202.16 27.8789C202.265 28.2718 202.423 28.6204 202.633 28.9248C202.849 29.2292 203.117 29.4699 203.438 29.647C203.759 29.8185 204.133 29.9043 204.559 29.9043C204.979 29.9043 205.347 29.8185 205.663 29.647C205.984 29.4699 206.249 29.2292 206.46 28.9248C206.67 28.6204 206.828 28.2718 206.933 27.8789C207.044 27.4805 207.099 27.0571 207.099 26.6089V26.418C207.099 25.9753 207.044 25.5575 206.933 25.1646C206.828 24.7661 206.667 24.4147 206.451 24.1104C206.241 23.8005 205.976 23.557 205.655 23.3799C205.339 23.2028 204.968 23.1143 204.542 23.1143C204.122 23.1143 203.751 23.2028 203.43 23.3799C203.115 23.557 202.849 23.8005 202.633 24.1104C202.423 24.4147 202.265 24.7661 202.16 25.1646C202.055 25.5575 202.002 25.9753 202.002 26.418ZM210.062 26.6089V26.418C210.062 25.7705 210.156 25.1701 210.344 24.6167C210.532 24.0578 210.803 23.5736 211.158 23.1641C211.512 22.749 211.941 22.4281 212.444 22.2012C212.948 21.9687 213.512 21.8525 214.138 21.8525C214.768 21.8525 215.336 21.9687 215.839 22.2012C216.348 22.4281 216.78 22.749 217.134 23.1641C217.494 23.5736 217.768 24.0578 217.956 24.6167C218.144 25.1701 218.238 25.7705 218.238 26.418V26.6089C218.238 27.2563 218.144 27.8568 217.956 28.4102C217.768 28.9635 217.494 29.4478 217.134 29.8628C216.78 30.2723 216.351 30.5933 215.848 30.8257C215.35 31.0526 214.785 31.166 214.154 31.166C213.523 31.166 212.956 31.0526 212.453 30.8257C211.949 30.5933 211.517 30.2723 211.158 29.8628C210.803 29.4478 210.532 28.9635 210.344 28.4102C210.156 27.8568 210.062 27.2563 210.062 26.6089ZM211.598 26.418V26.6089C211.598 27.0571 211.65 27.4805 211.755 27.8789C211.86 28.2718 212.018 28.6204 212.228 28.9248C212.444 29.2292 212.713 29.4699 213.034 29.647C213.355 29.8185 213.728 29.9043 214.154 29.9043C214.575 29.9043 214.943 29.8185 215.258 29.647C215.579 29.4699 215.845 29.2292 216.055 28.9248C216.265 28.6204 216.423 28.2718 216.528 27.8789C216.639 27.4805 216.694 27.0571 216.694 26.6089V26.418C216.694 25.9753 216.639 25.5575 216.528 25.1646C216.423 24.7661 216.263 24.4147 216.047 24.1104C215.836 23.8005 215.571 23.557 215.25 23.3799C214.934 23.2028 214.564 23.1143 214.138 23.1143C213.717 23.1143 213.346 23.2028 213.025 23.3799C212.71 23.557 212.444 23.8005 212.228 24.1104C212.018 24.4147 211.86 24.7661 211.755 25.1646C211.65 25.5575 211.598 25.9753 211.598 26.418ZM221.608 18.25V31H220.064V18.25H221.608ZM227.095 22.0186L223.177 26.2104L220.985 28.4849L220.861 26.8496L222.43 24.9736L225.219 22.0186H227.095ZM225.692 31L222.488 26.7168L223.285 25.3472L227.501 31H225.692Z" fill="white"/>
<defs>
<clipPath id="clip0_614_213">
<rect width="18" height="18" fill="white" transform="translate(17 17)"/>
</clipPath>
</defs>
</svg>
